<mxfile host="app.diagrams.net" modified="2023-06-29T13:12:34.723Z" agent="Mozilla/5.0 (X11; Linux x86_64; rv:109.0) Gecko/20100101 Firefox/114.0" etag="i_KZxxHQJgMh93tEP7hO" version="21.5.0" type="device">
  <diagram name="Page-1" id="vuxFwuJkEdhenrt9eUg2">
    <mxGraphModel dx="1366" dy="753" grid="1" gridSize="10" guides="1" tooltips="1" connect="1" arrows="1" fold="1" page="1" pageScale="1" pageWidth="850" pageHeight="1100" math="0" shadow="0">
      <root>
        <mxCell id="0" />
        <mxCell id="1" parent="0" />
        <mxCell id="081C-j92XR_DW1ripolD-1" value="Exchange" style="ellipse;whiteSpace=wrap;html=1;fillColor=#fff2cc;strokeColor=#d6b656;" vertex="1" parent="1">
          <mxGeometry x="30" y="360" width="120" height="80" as="geometry" />
        </mxCell>
        <mxCell id="081C-j92XR_DW1ripolD-2" value="RPC Server&lt;sub&gt;2.0.0.0.0&lt;/sub&gt;" style="ellipse;whiteSpace=wrap;html=1;fillColor=#cdeb8b;strokeColor=#36393d;" vertex="1" parent="1">
          <mxGeometry x="620" width="120" height="80" as="geometry" />
        </mxCell>
        <mxCell id="081C-j92XR_DW1ripolD-3" value="rpc queue&lt;sub&gt;2.0.0.0.0&lt;/sub&gt;" style="shape=process;whiteSpace=wrap;html=1;backgroundOutline=1;fillColor=#f8cecc;strokeColor=#b85450;" vertex="1" parent="1">
          <mxGeometry x="410" y="10" width="120" height="60" as="geometry" />
        </mxCell>
        <mxCell id="081C-j92XR_DW1ripolD-4" value="unique queue name" style="shape=process;whiteSpace=wrap;html=1;backgroundOutline=1;fillColor=#f8cecc;strokeColor=#b85450;" vertex="1" parent="1">
          <mxGeometry x="450" y="515" width="120" height="60" as="geometry" />
        </mxCell>
        <mxCell id="081C-j92XR_DW1ripolD-5" value="" style="endArrow=classic;html=1;rounded=0;exitX=0.5;exitY=0;exitDx=0;exitDy=0;entryX=0;entryY=0.5;entryDx=0;entryDy=0;dashed=1;dashPattern=12 12;" edge="1" parent="1" source="081C-j92XR_DW1ripolD-1" target="081C-j92XR_DW1ripolD-3">
          <mxGeometry relative="1" as="geometry">
            <mxPoint x="370" y="410" as="sourcePoint" />
            <mxPoint x="470" y="410" as="targetPoint" />
          </mxGeometry>
        </mxCell>
        <mxCell id="081C-j92XR_DW1ripolD-6" value="" style="shape=message;html=1;outlineConnect=0;fillColor=#f5f5f5;fontColor=#333333;strokeColor=#666666;" vertex="1" parent="081C-j92XR_DW1ripolD-5">
          <mxGeometry width="20" height="14" relative="1" as="geometry">
            <mxPoint x="-10" y="-7" as="offset" />
          </mxGeometry>
        </mxCell>
        <mxCell id="081C-j92XR_DW1ripolD-7" value="" style="endArrow=classic;html=1;rounded=0;exitX=1;exitY=0.5;exitDx=0;exitDy=0;entryX=0;entryY=0.5;entryDx=0;entryDy=0;" edge="1" parent="1" source="081C-j92XR_DW1ripolD-3" target="081C-j92XR_DW1ripolD-2">
          <mxGeometry relative="1" as="geometry">
            <mxPoint x="370" y="410" as="sourcePoint" />
            <mxPoint x="470" y="410" as="targetPoint" />
          </mxGeometry>
        </mxCell>
        <mxCell id="081C-j92XR_DW1ripolD-8" value="" style="shape=message;html=1;outlineConnect=0;fillColor=#f5f5f5;fontColor=#333333;strokeColor=#666666;" vertex="1" parent="081C-j92XR_DW1ripolD-7">
          <mxGeometry width="20" height="14" relative="1" as="geometry">
            <mxPoint x="-10" y="-7" as="offset" />
          </mxGeometry>
        </mxCell>
        <mxCell id="081C-j92XR_DW1ripolD-9" value="" style="endArrow=classic;html=1;rounded=0;entryX=1;entryY=0.5;entryDx=0;entryDy=0;exitX=0;exitY=0.5;exitDx=0;exitDy=0;" edge="1" parent="1" source="081C-j92XR_DW1ripolD-4" target="081C-j92XR_DW1ripolD-37">
          <mxGeometry relative="1" as="geometry">
            <mxPoint x="370" y="410" as="sourcePoint" />
            <mxPoint x="470" y="410" as="targetPoint" />
          </mxGeometry>
        </mxCell>
        <mxCell id="081C-j92XR_DW1ripolD-10" value="" style="shape=message;html=1;outlineConnect=0;fillColor=#e1d5e7;strokeColor=#9673a6;" vertex="1" parent="081C-j92XR_DW1ripolD-9">
          <mxGeometry width="20" height="14" relative="1" as="geometry">
            <mxPoint x="-10" y="-7" as="offset" />
          </mxGeometry>
        </mxCell>
        <mxCell id="081C-j92XR_DW1ripolD-11" value="" style="endArrow=classic;html=1;rounded=0;exitX=1;exitY=0.5;exitDx=0;exitDy=0;entryX=1;entryY=0.5;entryDx=0;entryDy=0;" edge="1" parent="1" source="081C-j92XR_DW1ripolD-2" target="081C-j92XR_DW1ripolD-4">
          <mxGeometry relative="1" as="geometry">
            <mxPoint x="370" y="410" as="sourcePoint" />
            <mxPoint x="470" y="410" as="targetPoint" />
            <Array as="points">
              <mxPoint x="800" y="40" />
              <mxPoint x="800" y="545" />
            </Array>
          </mxGeometry>
        </mxCell>
        <mxCell id="081C-j92XR_DW1ripolD-12" value="" style="shape=message;html=1;outlineConnect=0;fillColor=#e1d5e7;strokeColor=#9673a6;" vertex="1" parent="081C-j92XR_DW1ripolD-11">
          <mxGeometry width="20" height="14" relative="1" as="geometry">
            <mxPoint x="-40" y="-345" as="offset" />
          </mxGeometry>
        </mxCell>
        <mxCell id="081C-j92XR_DW1ripolD-13" value="RPC Server&lt;sub&gt;2.1.0.0.0&lt;/sub&gt;" style="ellipse;whiteSpace=wrap;html=1;fillColor=#cdeb8b;strokeColor=#36393d;" vertex="1" parent="1">
          <mxGeometry x="620" y="150" width="120" height="80" as="geometry" />
        </mxCell>
        <mxCell id="081C-j92XR_DW1ripolD-14" value="rpc queue&lt;sub&gt;2.1.0.0.0&lt;/sub&gt;" style="shape=process;whiteSpace=wrap;html=1;backgroundOutline=1;fillColor=#f8cecc;strokeColor=#b85450;" vertex="1" parent="1">
          <mxGeometry x="410" y="160" width="120" height="60" as="geometry" />
        </mxCell>
        <mxCell id="081C-j92XR_DW1ripolD-15" value="" style="endArrow=classic;html=1;rounded=0;exitX=1;exitY=0.5;exitDx=0;exitDy=0;entryX=0;entryY=0.5;entryDx=0;entryDy=0;" edge="1" parent="1" source="081C-j92XR_DW1ripolD-14" target="081C-j92XR_DW1ripolD-13">
          <mxGeometry relative="1" as="geometry">
            <mxPoint x="370" y="560" as="sourcePoint" />
            <mxPoint x="470" y="560" as="targetPoint" />
          </mxGeometry>
        </mxCell>
        <mxCell id="081C-j92XR_DW1ripolD-16" value="" style="shape=message;html=1;outlineConnect=0;fillColor=#f5f5f5;fontColor=#333333;strokeColor=#666666;" vertex="1" parent="081C-j92XR_DW1ripolD-15">
          <mxGeometry width="20" height="14" relative="1" as="geometry">
            <mxPoint x="-10" y="-7" as="offset" />
          </mxGeometry>
        </mxCell>
        <mxCell id="081C-j92XR_DW1ripolD-17" value="" style="endArrow=classic;html=1;rounded=0;exitX=0.5;exitY=0;exitDx=0;exitDy=0;entryX=0;entryY=0.5;entryDx=0;entryDy=0;dashed=1;dashPattern=12 12;" edge="1" parent="1" source="081C-j92XR_DW1ripolD-1" target="081C-j92XR_DW1ripolD-14">
          <mxGeometry relative="1" as="geometry">
            <mxPoint x="100" y="370" as="sourcePoint" />
            <mxPoint x="420" y="50" as="targetPoint" />
          </mxGeometry>
        </mxCell>
        <mxCell id="081C-j92XR_DW1ripolD-18" value="" style="shape=message;html=1;outlineConnect=0;fillColor=#f5f5f5;fontColor=#333333;strokeColor=#666666;" vertex="1" parent="081C-j92XR_DW1ripolD-17">
          <mxGeometry width="20" height="14" relative="1" as="geometry">
            <mxPoint x="-10" y="-7" as="offset" />
          </mxGeometry>
        </mxCell>
        <mxCell id="081C-j92XR_DW1ripolD-21" value="RPC Server&lt;sub&gt;2.2.0.0.0&lt;/sub&gt;" style="ellipse;whiteSpace=wrap;html=1;fillColor=#cdeb8b;strokeColor=#36393d;" vertex="1" parent="1">
          <mxGeometry x="620" y="270" width="120" height="80" as="geometry" />
        </mxCell>
        <mxCell id="081C-j92XR_DW1ripolD-22" value="rpc queue&lt;sub&gt;2.2.0.0.0&lt;/sub&gt;" style="shape=process;whiteSpace=wrap;html=1;backgroundOutline=1;fillColor=#f8cecc;strokeColor=#b85450;" vertex="1" parent="1">
          <mxGeometry x="410" y="280" width="120" height="60" as="geometry" />
        </mxCell>
        <mxCell id="081C-j92XR_DW1ripolD-23" value="" style="endArrow=classic;html=1;rounded=0;exitX=1;exitY=0.5;exitDx=0;exitDy=0;entryX=0;entryY=0.5;entryDx=0;entryDy=0;" edge="1" parent="1" source="081C-j92XR_DW1ripolD-22" target="081C-j92XR_DW1ripolD-21">
          <mxGeometry relative="1" as="geometry">
            <mxPoint x="370" y="680" as="sourcePoint" />
            <mxPoint x="470" y="680" as="targetPoint" />
          </mxGeometry>
        </mxCell>
        <mxCell id="081C-j92XR_DW1ripolD-24" value="" style="shape=message;html=1;outlineConnect=0;fillColor=#f5f5f5;fontColor=#333333;strokeColor=#666666;" vertex="1" parent="081C-j92XR_DW1ripolD-23">
          <mxGeometry width="20" height="14" relative="1" as="geometry">
            <mxPoint x="-10" y="-7" as="offset" />
          </mxGeometry>
        </mxCell>
        <mxCell id="081C-j92XR_DW1ripolD-25" value="RPC Server&lt;sub&gt;2.9.9.9.9&lt;/sub&gt;" style="ellipse;whiteSpace=wrap;html=1;fillColor=#cdeb8b;strokeColor=#36393d;" vertex="1" parent="1">
          <mxGeometry x="620" y="420" width="120" height="80" as="geometry" />
        </mxCell>
        <mxCell id="081C-j92XR_DW1ripolD-26" value="rpc queue&lt;sub&gt;2.9.9.9.9&lt;/sub&gt;" style="shape=process;whiteSpace=wrap;html=1;backgroundOutline=1;fillColor=#f8cecc;strokeColor=#b85450;" vertex="1" parent="1">
          <mxGeometry x="410" y="430" width="120" height="60" as="geometry" />
        </mxCell>
        <mxCell id="081C-j92XR_DW1ripolD-27" value="" style="endArrow=classic;html=1;rounded=0;exitX=1;exitY=0.5;exitDx=0;exitDy=0;entryX=0;entryY=0.5;entryDx=0;entryDy=0;" edge="1" parent="1" source="081C-j92XR_DW1ripolD-26" target="081C-j92XR_DW1ripolD-25">
          <mxGeometry relative="1" as="geometry">
            <mxPoint x="370" y="830" as="sourcePoint" />
            <mxPoint x="470" y="830" as="targetPoint" />
          </mxGeometry>
        </mxCell>
        <mxCell id="081C-j92XR_DW1ripolD-28" value="" style="shape=message;html=1;outlineConnect=0;fillColor=#f5f5f5;fontColor=#333333;strokeColor=#666666;" vertex="1" parent="081C-j92XR_DW1ripolD-27">
          <mxGeometry width="20" height="14" relative="1" as="geometry">
            <mxPoint x="-10" y="-7" as="offset" />
          </mxGeometry>
        </mxCell>
        <mxCell id="081C-j92XR_DW1ripolD-29" value="" style="endArrow=classic;html=1;rounded=0;exitX=0.5;exitY=0;exitDx=0;exitDy=0;entryX=0;entryY=0.5;entryDx=0;entryDy=0;dashed=1;dashPattern=12 12;" edge="1" parent="1" source="081C-j92XR_DW1ripolD-1" target="081C-j92XR_DW1ripolD-22">
          <mxGeometry relative="1" as="geometry">
            <mxPoint x="100" y="370" as="sourcePoint" />
            <mxPoint x="420" y="200" as="targetPoint" />
          </mxGeometry>
        </mxCell>
        <mxCell id="081C-j92XR_DW1ripolD-30" value="" style="shape=message;html=1;outlineConnect=0;fillColor=#f5f5f5;fontColor=#333333;strokeColor=#666666;" vertex="1" parent="081C-j92XR_DW1ripolD-29">
          <mxGeometry width="20" height="14" relative="1" as="geometry">
            <mxPoint x="-10" y="-7" as="offset" />
          </mxGeometry>
        </mxCell>
        <mxCell id="081C-j92XR_DW1ripolD-31" value="" style="endArrow=classic;html=1;rounded=0;exitX=0.583;exitY=-0.037;exitDx=0;exitDy=0;entryX=0;entryY=0.5;entryDx=0;entryDy=0;exitPerimeter=0;dashed=1;dashPattern=12 12;" edge="1" parent="1" source="081C-j92XR_DW1ripolD-1" target="081C-j92XR_DW1ripolD-26">
          <mxGeometry relative="1" as="geometry">
            <mxPoint x="110" y="380" as="sourcePoint" />
            <mxPoint x="430" y="210" as="targetPoint" />
          </mxGeometry>
        </mxCell>
        <mxCell id="081C-j92XR_DW1ripolD-32" value="" style="shape=message;html=1;outlineConnect=0;fillColor=#f5f5f5;fontColor=#333333;strokeColor=#666666;" vertex="1" parent="081C-j92XR_DW1ripolD-31">
          <mxGeometry width="20" height="14" relative="1" as="geometry">
            <mxPoint x="-10" y="-7" as="offset" />
          </mxGeometry>
        </mxCell>
        <mxCell id="081C-j92XR_DW1ripolD-36" value="..." style="text;html=1;strokeColor=none;fillColor=none;align=center;verticalAlign=middle;whiteSpace=wrap;rounded=0;fontSize=30;" vertex="1" parent="1">
          <mxGeometry x="600" y="370" width="60" height="30" as="geometry" />
        </mxCell>
        <mxCell id="081C-j92XR_DW1ripolD-37" value="Client" style="ellipse;whiteSpace=wrap;html=1;fillColor=#cce5ff;strokeColor=#36393d;" vertex="1" parent="1">
          <mxGeometry x="30" y="505" width="120" height="80" as="geometry" />
        </mxCell>
        <mxCell id="081C-j92XR_DW1ripolD-38" value="" style="endArrow=classic;html=1;rounded=0;exitX=0.5;exitY=0;exitDx=0;exitDy=0;entryX=0.5;entryY=1;entryDx=0;entryDy=0;" edge="1" parent="1" source="081C-j92XR_DW1ripolD-37" target="081C-j92XR_DW1ripolD-1">
          <mxGeometry relative="1" as="geometry">
            <mxPoint x="370" y="290" as="sourcePoint" />
            <mxPoint x="470" y="290" as="targetPoint" />
          </mxGeometry>
        </mxCell>
        <mxCell id="081C-j92XR_DW1ripolD-39" value="" style="shape=message;html=1;outlineConnect=0;fillColor=#f5f5f5;fontColor=#333333;strokeColor=#666666;" vertex="1" parent="081C-j92XR_DW1ripolD-38">
          <mxGeometry width="20" height="14" relative="1" as="geometry">
            <mxPoint x="-10" y="-7" as="offset" />
          </mxGeometry>
        </mxCell>
        <mxCell id="081C-j92XR_DW1ripolD-40" value="" style="endArrow=classic;html=1;rounded=0;exitX=1;exitY=0.5;exitDx=0;exitDy=0;entryX=1;entryY=0.5;entryDx=0;entryDy=0;" edge="1" parent="1" source="081C-j92XR_DW1ripolD-25" target="081C-j92XR_DW1ripolD-4">
          <mxGeometry relative="1" as="geometry">
            <mxPoint x="490" y="450" as="sourcePoint" />
            <mxPoint x="590" y="450" as="targetPoint" />
            <Array as="points">
              <mxPoint x="800" y="460" />
              <mxPoint x="800" y="545" />
            </Array>
          </mxGeometry>
        </mxCell>
        <mxCell id="081C-j92XR_DW1ripolD-41" value="" style="shape=message;html=1;outlineConnect=0;fillColor=#e1d5e7;strokeColor=#9673a6;" vertex="1" parent="081C-j92XR_DW1ripolD-40">
          <mxGeometry width="20" height="14" relative="1" as="geometry">
            <mxPoint x="3" y="-92" as="offset" />
          </mxGeometry>
        </mxCell>
        <mxCell id="081C-j92XR_DW1ripolD-42" value="" style="endArrow=classic;html=1;rounded=0;exitX=1;exitY=0.5;exitDx=0;exitDy=0;entryX=1;entryY=0.5;entryDx=0;entryDy=0;" edge="1" parent="1" source="081C-j92XR_DW1ripolD-21" target="081C-j92XR_DW1ripolD-4">
          <mxGeometry relative="1" as="geometry">
            <mxPoint x="750" y="470" as="sourcePoint" />
            <mxPoint x="580" y="555" as="targetPoint" />
            <Array as="points">
              <mxPoint x="800" y="310" />
              <mxPoint x="800" y="545" />
            </Array>
          </mxGeometry>
        </mxCell>
        <mxCell id="081C-j92XR_DW1ripolD-43" value="" style="shape=message;html=1;outlineConnect=0;fillColor=#e1d5e7;strokeColor=#9673a6;" vertex="1" parent="081C-j92XR_DW1ripolD-42">
          <mxGeometry width="20" height="14" relative="1" as="geometry">
            <mxPoint x="-40" y="-209" as="offset" />
          </mxGeometry>
        </mxCell>
        <mxCell id="081C-j92XR_DW1ripolD-44" value="" style="endArrow=classic;html=1;rounded=0;exitX=1;exitY=0.5;exitDx=0;exitDy=0;entryX=1;entryY=0.5;entryDx=0;entryDy=0;" edge="1" parent="1" source="081C-j92XR_DW1ripolD-13" target="081C-j92XR_DW1ripolD-4">
          <mxGeometry relative="1" as="geometry">
            <mxPoint x="760" y="480" as="sourcePoint" />
            <mxPoint x="590" y="565" as="targetPoint" />
            <Array as="points">
              <mxPoint x="800" y="190" />
              <mxPoint x="800" y="545" />
            </Array>
          </mxGeometry>
        </mxCell>
        <mxCell id="081C-j92XR_DW1ripolD-45" value="" style="shape=message;html=1;outlineConnect=0;fillColor=#e1d5e7;strokeColor=#9673a6;" vertex="1" parent="081C-j92XR_DW1ripolD-44">
          <mxGeometry width="20" height="14" relative="1" as="geometry">
            <mxPoint x="-40" y="-269" as="offset" />
          </mxGeometry>
        </mxCell>
      </root>
    </mxGraphModel>
  </diagram>
</mxfile>
